Live Flesh (1997)

Pizza delivery man Victor is having an argument with Elena, whom he met a few days ago, but she was high then and doesn't want to hear about him. Reacting to the noise, two cops, young David and older Sancho, arrive at the scene, the gun accidentally goes off.. Four years later David is a wheelchair basketball star, he's married to Elena, Victor is released out of prison and their destinies begin to cross again.
 
Format                           : AVI
Format/Info                      : Audio Video Interleave
Format profile                   : OpenDML
File size                        : 697 MiB
Duration                         : 1h 40mn
Overall bit rate                 : 965 Kbps
Writing application              : AVI-Mux GUI 1.17.8.3, Feb 16 201019:42:50
Language                         : Spanish
Subtitles                        : English(*.srt)
Genre                            : Drama

Video
ID                               : 0
Format                           : MPEG-4 Visual
Format profile                   : Advanced Simple@L5
Format settings, BVOP            : Yes
Format settings, QPel            : No
Format settings, GMC             : No warppoints
Format settings, Matrix          : Custom
Codec ID                         : XVID
Codec ID/Hint                    : XviD
Duration                         : 1h 40mn
Bit rate                         : 845 Kbps
Width                            : 656 pixels
Height                           : 288 pixels
Display aspect ratio             : 2.25:1
Frame rate                       : 23.976 fps
Color space                      : YUV
Chroma subsampling               : 4:2:0
Bit depth                        : 8 bits
Scan type                        : Progressive
Bits/(Pixel*Frame)               : 0.187
Stream size                      : 610 MiB (88%)
Writing library                  : XviD 1.2.1 (UTC 2008-12-04)

Audio
ID                               : 1
Format                           : MPEG Audio
Format version                   : Version 1
Format profile                   : Layer 3
Mode                             : Joint stereo
Mode extension                   : MS Stereo
Codec ID                         : 55
Codec ID/Hint                    : MP3
Duration                         : 1h 40mn
Bit rate mode                    : Variable
Bit rate                         : 112 Kbps
Channel(s)                       : 2 channels
Sampling rate                    : 48.0 KHz
Stream size                      : 80.5 MiB (12%)
Alignment                        : Aligned on interleaves
Interleave, duration             : 24 ms (0.58 video frame)
Interleave, preload duration     : 206 ms
Writing library                  : LAME3.98.2
 
http://leetleech.org/images/62168097478563828679.png 
http://leetleech.org/images/07837385592593247560.png 
http://leetleech.org/images/53875264008930621426.png 
http://leetleech.org/images/29802834247957836555.png 
http://leetleech.org/images/16477405825607483180.png 
http://leetleech.org/images/21399030168292334337.png
 
http://www.youtube.com/watch?v=pYLgjp9yON0
 
http://www.imdb.com/title/tt0118819
 
http://leetleech.org/images/97913465899887526311.png
